<svg width="107" height="147" viewBox="0 0 107 147" fill="none" xmlns="http://www.w3.org/2000/svg">
<path fill-rule="evenodd" clip-rule="evenodd" d="M4.01646 0.111777C2.22899 -0.105896 0.653809 1.2891 0.653809 3.08978V143.457C0.653809 145.421 2.50886 146.855 4.40915 146.361L94.1014 123.026C95.4234 122.682 96.3461 121.489 96.3461 120.123V109.222H94.3461V120.123C94.3461 120.578 94.0385 120.976 93.5979 121.091L3.90559 144.425C3.27216 144.59 2.65381 144.112 2.65381 143.457V3.08978C2.65381 2.48955 3.17887 2.02455 3.77469 2.09711L93.467 13.0196C93.9688 13.0807 94.3461 13.5067 94.3461 14.0122V52.1745H96.3461V14.0122C96.3461 12.4956 95.2142 11.2176 93.7088 11.0342L4.01646 0.111777Z" fill="white"/>
<path d="M86.6538 56.6989C86.6538 54.8962 88.2324 53.5006 90.0215 53.7215L103.021 55.3267C104.525 55.5123 105.654 56.7894 105.654 58.3041V102.66C105.654 104.147 104.564 105.409 103.094 105.627L90.0935 107.554C88.2814 107.822 86.6538 106.418 86.6538 104.586V56.6989Z" fill="white" fill-opacity="0.5" stroke="white" stroke-width="2" stroke-linejoin="round"/>
<path d="M105.487 87.4406L93.8204 53.7305L105.038 55.2863L105.487 87.4406Z" fill="white" fill-opacity="0.7"/>
<path d="M90.9038 54.9206C90.9038 54.0053 91.6935 53.2898 92.6043 53.3798L100.008 54.1111C100.8 54.1894 101.404 54.8558 101.404 55.6519C101.404 56.5672 100.614 57.2827 99.7033 57.1927L92.2999 56.4614C91.5076 56.3831 90.9038 55.7168 90.9038 54.9206Z" fill="white"/>
<ellipse opacity="0.22" cx="51.5961" cy="59.0895" rx="1.03205" ry="1.32535" fill="white"/>
<ellipse opacity="0.22" cx="51.5961" cy="97.5247" rx="1.03205" ry="1.32535" fill="white"/>
<ellipse opacity="0.22" cx="50.0481" cy="69.0297" rx="1.54808" ry="1.98803" fill="white"/>
<ellipse opacity="0.22" cx="50.5641" cy="78.9698" rx="2.0641" ry="2.65071" fill="white"/>
<ellipse opacity="0.22" cx="51.0802" cy="88.9099" rx="1.54808" ry="1.98803" fill="white"/>
<ellipse cx="58.3045" cy="51.8" rx="0.516026" ry="0.662677" fill="white"/>
<ellipse cx="58.3045" cy="104.814" rx="0.516026" ry="0.662677" fill="white"/>
<ellipse opacity="0.66" cx="58.8205" cy="59.0895" rx="1.03205" ry="1.32535" fill="white"/>
<ellipse opacity="0.66" cx="58.8205" cy="97.5247" rx="1.03205" ry="1.32535" fill="white"/>
<ellipse opacity="0.66" cx="58.3045" cy="69.0297" rx="1.54808" ry="1.98803" fill="white"/>
<ellipse opacity="0.66" cx="58.8206" cy="78.9698" rx="2.0641" ry="2.65071" fill="white"/>
<ellipse opacity="0.44" cx="59.3365" cy="88.9099" rx="1.54808" ry="1.98803" fill="white"/>
<ellipse cx="66.561" cy="51.8" rx="0.516026" ry="0.662677" fill="white"/>
<ellipse cx="66.561" cy="104.814" rx="0.516026" ry="0.662677" fill="white"/>
<ellipse cx="67.077" cy="59.0895" rx="1.03205" ry="1.32535" fill="white"/>
<ellipse cx="67.077" cy="97.5247" rx="1.03205" ry="1.32535" fill="white"/>
<ellipse cx="66.5609" cy="69.0297" rx="1.54808" ry="1.98803" fill="white"/>
<ellipse cx="67.0769" cy="78.9698" rx="2.0641" ry="2.65071" fill="white"/>
<ellipse cx="67.593" cy="88.9099" rx="1.54808" ry="1.98803" fill="white"/>
<ellipse cx="74.8173" cy="51.8" rx="0.516026" ry="0.662677" fill="white"/>
<ellipse cx="74.8173" cy="104.814" rx="0.516026" ry="0.662677" fill="white"/>
<ellipse opacity="0.66" cx="75.3333" cy="59.0895" rx="1.03205" ry="1.32535" fill="white"/>
<ellipse cx="75.3333" cy="97.5247" rx="1.03205" ry="1.32535" fill="white"/>
<ellipse opacity="0.66" cx="74.8174" cy="69.0297" rx="1.54808" ry="1.98803" fill="white"/>
<ellipse opacity="0.66" cx="75.3334" cy="78.9698" rx="2.0641" ry="2.65071" fill="white"/>
<ellipse opacity="0.44" cx="75.8493" cy="88.9099" rx="1.54808" ry="1.98803" fill="white"/>
<ellipse opacity="0.22" cx="82.5577" cy="59.0895" rx="1.03205" ry="1.32535" fill="white"/>
<ellipse opacity="0.22" cx="82.5577" cy="97.5247" rx="1.03205" ry="1.32535" fill="white"/>
<ellipse opacity="0.22" cx="83.0737" cy="69.0297" rx="1.54808" ry="1.98803" fill="white"/>
<ellipse opacity="0.22" cx="83.5897" cy="78.9698" rx="2.0641" ry="2.65071" fill="white"/>
<ellipse opacity="0.22" cx="84.1058" cy="88.9099" rx="1.54808" ry="1.98803" fill="white"/>
</svg>
